<?xml version="1.0" encoding="utf-8"?>
<!-- Generator: Adobe Illustrator 23.0.0, SVG Export Plug-In . SVG Version: 6.00 Build 0)  -->
<svg version="1.1" xmlns="http://www.w3.org/2000/svg" xmlns:xlink="http://www.w3.org/1999/xlink" x="0px" y="0px"
	 viewBox="0 0 200 200" style="enable-background:new 0 0 200 200;" xml:space="preserve">
<path d="M186.8,64.2c0.5,1.2,0.9,2.4,1.3,3.7h-9.9c-12.7-30.1-42.6-51.3-77.4-51.3c-46.4,0-84,37.6-84,84H7.5
	c0-51.5,41.8-93.3,93.3-93.3c33.3,0,62.4,17.5,78.9,43.7l2.9-16.3c0.4-2.5,2.9-4.2,5.4-3.8c2.5,0.4,4.2,2.9,3.8,5.4L187,63.7
	C186.9,63.9,186.8,64,186.8,64.2L186.8,64.2z M14.9,136.8c-0.5-1.2-0.9-2.4-1.3-3.7h9.9c12.7,30.1,42.6,51.3,77.4,51.3
	c46.4,0,84-37.6,84-84h9.3c0,51.5-41.8,93.3-93.3,93.3c-33.3,0-62.4-17.5-78.9-43.7L19,166.4c-0.4,2.5-2.9,4.2-5.4,3.8
	c-2.5-0.4-4.2-2.9-3.8-5.4l4.9-27.6C14.7,137,14.8,136.9,14.9,136.8L14.9,136.8z"/>
<g>
	<path d="M47.3,77.4h15.9c9.9,0,17.4,2.9,17.4,11.8c0,4.4-2.5,9-6.6,10.4v0.3c5.2,1.2,9,4.9,9,11.4c0,9.7-8.1,14.2-18.7,14.2H47.3
		V77.4z M62.6,97c6.1,0,8.8-2.5,8.8-6.3c0-4.2-2.9-5.9-8.7-5.9H57V97H62.6z M63.7,118.2c6.6,0,10.2-2.3,10.2-7.4
		c0-4.7-3.5-6.6-10.2-6.6H57v14H63.7z"/>
	<path d="M87.2,119.5l5.5-6.6c3.4,3.2,8,5.3,12.2,5.3c5,0,7.7-2.1,7.7-5.5c0-3.6-2.9-4.7-7.2-6.5l-6.4-2.7c-4.9-2-9.8-5.9-9.8-12.9
		c0-7.9,6.9-13.9,16.7-13.9c5.6,0,11.2,2.2,15.1,6.2l-4.9,6.1c-3.1-2.5-6.2-4-10.2-4c-4.2,0-7,1.9-7,5.1c0,3.4,3.4,4.7,7.5,6.3
		l6.3,2.7c5.9,2.4,9.7,6.1,9.7,13.1c0,7.9-6.6,14.6-17.7,14.6C98.3,126.5,91.9,124,87.2,119.5z"/>
	<path d="M139.1,85.5h-13.5v-8h36.8v8h-13.7v40.1h-9.6V85.5z"/>
</g>
</svg>
