<svg xmlns="http://www.w3.org/2000/svg" viewBox="0 0 164.9 164.9"><title>资源 2xhdpi</title><g id="图层_2" data-name="图层 2"><g id="图层_1-2" data-name="图层 1"><path d="M36.29,86.32H28.08v17.13h8.21c8.05,0,12.43-2.87,12.43-9C48.72,88.71,44.42,86.32,36.29,86.32Z"/><path d="M45.69,69.83c0-5.18-3.5-7.25-10.6-7.25h-7v15h6.86C42.43,77.56,45.69,74.53,45.69,69.83Z"/><path d="M133.16,0H31.73A31.74,31.74,0,0,0,0,31.73V133.16A31.74,31.74,0,0,0,31.73,164.9H133.16a31.74,31.74,0,0,0,31.74-31.74V31.73A31.74,31.74,0,0,0,133.16,0ZM37.33,112.54h-21v-59H35.81c12.11,0,21.36,3.51,21.36,14.5,0,5.42-3,11-8.05,12.75v.4c6.37,1.52,11.07,6,11.07,14C60.19,107,50.31,112.54,37.33,112.54Zm49.32,1.11a31.43,31.43,0,0,1-21.51-8.6l6.77-8.13c4.22,3.9,9.8,6.53,15,6.53,6.14,0,9.4-2.63,9.4-6.77,0-4.38-3.58-5.74-8.84-8l-7.89-3.34c-6-2.47-12-7.26-12-15.86,0-9.64,8.44-17.05,20.39-17.05A26.16,26.16,0,0,1,106.49,60l-6,7.41c-3.75-3.11-7.65-4.86-12.52-4.86-5.17,0-8.52,2.31-8.52,6.21,0,4.23,4.22,5.74,9.24,7.73l7.73,3.27c7.17,2.95,11.87,7.49,11.87,16C108.32,105.44,100.28,113.65,86.65,113.65Zm70.52-50.28H140.44v49.17h-11.8V63.37H112.07v-9.8h45.1Z"/></g></g></svg>