<svg xmlns="http://www.w3.org/2000/svg" viewBox="0 0 200 200"><defs><style>.cls-1{fill:#f7931e;}</style></defs><title>资源 1xhdpi</title><g id="图层_2" data-name="图层 2"><g id="图层_1-2" data-name="图层 1"><path class="cls-1" d="M50.83,105.58h-7.4v15h7.4c7.16,0,10.82-2.58,10.82-7.9C61.65,107.57,58.07,105.58,50.83,105.58Z"/><path class="cls-1" d="M58.74,87.6c0-4.41-2.92-6.24-9.16-6.24H43.43V94.59h6.15C55.91,94.59,58.74,91.85,58.74,87.6Z"/><path class="cls-1" d="M100,0A100,100,0,1,0,200,100,100,100,0,0,0,100,0ZM51.91,132H28.53V70.05H50.17c12.81,0,23,3.41,23,15.31,0,5.49-3.07,11.48-8.07,13.39v.34c6.24,1.66,11,6.32,11,14.56C76.13,126.29,65.39,132,51.91,132Zm51.84,1.17a34.65,34.65,0,0,1-23.13-8.91L89,114c4.41,3.74,10.15,6.32,15.06,6.32,5.5,0,8.07-2.08,8.07-5.4,0-3.58-3.41-4.75-8.73-7l-7.91-3.33C89,102,83,96.59,83,87.6c0-10.4,9.32-18.72,22.46-18.72A28.81,28.81,0,0,1,125.55,77l-7.4,9.32c-4.08-3.08-7.91-4.75-12.74-4.75-4.57,0-7.4,1.83-7.4,5.16s3.91,4.74,9.4,6.91l7.74,3.08c7.66,3.08,12.23,8.23,12.23,17C127.38,124.05,118.73,133.12,103.75,133.12Zm58.91-50.76V132H147.77V82.36H131V70.05h48.43V82.36Z"/></g></g></svg>