<?xml version="1.0" standalone="no"?><!DOCTYPE svg PUBLIC "-//W3C//DTD SVG 1.1//EN" "http://www.w3.org/Graphics/SVG/1.1/DTD/svg11.dtd"><svg t="1572678660476" class="icon" viewBox="0 0 1024 1024" version="1.1" xmlns="http://www.w3.org/2000/svg" p-id="11127" xmlns:xlink="http://www.w3.org/1999/xlink" width="200" height="200"><defs><style type="text/css"></style></defs><path d="M946.773333 857.173333l-83.626666-155.306666c8.533333-19.2 13.653333-40.533333 13.653333-63.146667 0.426667-86.613333-69.973333-157.44-157.44-157.866667-87.04-0.426667-158.293333 69.546667-158.293333 156.586667 0 22.186667 4.693333 44.373333 14.08 64.426667l-85.333334 153.173333c-3.84 6.826667-1.28 15.36 5.546667 19.2 2.986667 1.706667 6.826667 2.133333 10.24 1.28l72.106667-16.213333 24.32 68.693333c1.706667 5.12 6.826667 8.96 12.373333 9.386667h1.28c5.12 0 10.24-2.986667 12.8-7.253334l74.24-136.96c5.12 0.426667 10.24 1.706667 15.786667 1.706667 5.12 0 9.386667-0.853333 14.506666-1.28l75.093334 137.386667c2.56 4.693333 7.253333 7.68 12.8 7.68h1.28c5.546667-0.426667 10.24-3.84 12.373333-9.386667l24.746667-68.266667 72.106666 16.64c5.546667 1.28 11.093333-0.853333 14.506667-5.12 2.986667-4.266667 3.413333-10.24 0.853333-15.36z m-329.813333-43.52l-1.28-3.84c-2.56-6.826667-8.96-11.52-16.213333-11.52-1.28 0-2.56 0-4.266667 0.426667l-4.266667 0.853333 20.48-36.693333c8.106667 6.826667 15.786667 11.52 24.32 16.213333l-18.773333 34.56z m101.973333-85.76h-2.56c-49.066667-1.28-88.32-41.386667-87.893333-90.453333 0.426667-49.493333 40.96-89.6 90.453333-89.6h0.426667c49.92 0 90.026667 40.533333 90.026667 90.453333-0.426667 49.493333-40.96 89.6-90.453334 89.6z m125.44 81.493334c-1.28-0.426667-2.56-0.426667-4.266666-0.426667-7.68 0-14.933333 5.12-17.493334 12.373333l-2.986666 8.533334-24.746667-45.226667c11.093333-6.4 21.333333-12.373333 32-21.333333l27.306667 48.64-9.813334-2.56z" fill="#4C4C4C" p-id="11128"></path><path d="M897.28 85.333333h-750.933333c-28.16 0-51.2 23.04-51.2 51.2v750.933334c0 28.16 23.04 51.2 51.2 51.2h276.906666c18.773333 0 34.133333-15.36 34.133334-34.133334s-15.36-34.133333-34.133334-34.133333H163.413333V153.6h716.8v275.626667c0 18.773333 15.36 34.133333 34.133334 34.133333s34.133333-15.36 34.133333-34.133333V136.533333c0-28.16-22.613333-51.2-51.2-51.2z" fill="#4C4C4C" p-id="11129"></path><path d="M649.813333 315.733333h-324.266666c-18.773333 0-34.133333-15.36-34.133334-34.133333s15.36-34.133333 34.133334-34.133333h324.266666c18.773333 0 34.133333 15.36 34.133334 34.133333s-14.933333 34.133333-34.133334 34.133333zM564.48 452.266667h-238.933333c-18.773333 0-34.133333-15.36-34.133334-34.133334s15.36-34.133333 34.133334-34.133333h238.933333c18.773333 0 34.133333 15.36 34.133333 34.133333s-14.933333 34.133333-34.133333 34.133334zM479.146667 588.8h-153.6c-18.773333 0-34.133333-15.36-34.133334-34.133333s15.36-34.133333 34.133334-34.133334h153.6c18.773333 0 34.133333 15.36 34.133333 34.133334s-14.933333 34.133333-34.133333 34.133333z" fill="#4C4C4C" p-id="11130"></path></svg>