<?xml version="1.0" standalone="no"?><!DOCTYPE svg PUBLIC "-//W3C//DTD SVG 1.1//EN" "http://www.w3.org/Graphics/SVG/1.1/DTD/svg11.dtd"><svg t="1569127753426" class="icon" viewBox="0 0 1024 1024" version="1.1" xmlns="http://www.w3.org/2000/svg" p-id="6914" xmlns:xlink="http://www.w3.org/1999/xlink" width="200" height="200"><defs><style type="text/css"></style></defs><path d="M924.480402 223.141126c-14.159488-13.278421-36.490076-12.644995-49.76952 1.550309L404.986731 724.811874l-256.594029-252.826216c-13.878079-13.666254-36.172851-13.525038-49.839105 0.352017-13.666254 13.842263-13.490246 36.172851 0.387833 49.804313l282.306644 278.115182c0.105401 0.105401 0.246617 0.141216 0.352017 0.246617s0.141216 0.246617 0.246617 0.352017c2.218528 2.113127 4.895497 3.310396 7.467065 4.719488 1.267876 0.73985 2.359744 1.831718 3.698229 2.359744 4.15667 1.619894 8.558933 2.465145 12.926404 2.465145 4.614088 0 9.228175-0.915859 13.525038-2.747577 1.443885-0.598634 2.571568-1.831718 3.910053-2.606361 2.641153-1.549286 5.38873-2.852978 7.643074-5.142114 0.105401-0.105401 0.141216-0.281409 0.246617-0.387833 0.070608-0.105401 0.211824-0.141216 0.317225-0.246617l494.415506-526.362102C939.378717 258.785951 938.63989 236.490156 924.480402 223.141126z" p-id="6915"></path></svg>