<svg xmlns="http://www.w3.org/2000/svg" viewBox="0 0 251 251"><defs><style>.cls-1{fill:#e9a530;}</style></defs><path class="cls-1" d="M125.5,0A125.5,125.5,0,1,0,251,125.5,125.5,125.5,0,0,0,125.5,0Zm65.62,95.46v65.1c0,11.6-2.08,18.7-10,22.68-7.79,4-17.32,4.5-29.61,4.33-1-7.27-4.85-18.52-8.31-25.28,6.41.35,15.58.35,18,.35,2.59,0,3.46-.69,3.46-2.77V120.05H138.31v85.87H112V120.05H87.06v67h-26V95.46H112V75.55c-19,.69-38.09,1-56.09,1-.35-6.93-3.12-16.62-5.37-22.51,48.65-.52,102.33-3.46,140.42-9l9.52,23c-18.87,2.77-40.17,4.68-62.16,6.06v21.3Z"/></svg>
