<svg xmlns="http://www.w3.org/2000/svg" viewBox="0 0 164.9 164.9"><title>资源 1xhdpi</title><g id="图层_2" data-name="图层 2"><g id="图层_1-2" data-name="图层 1"><path d="M133.16,0H31.73A31.74,31.74,0,0,0,0,31.73V133.16A31.74,31.74,0,0,0,31.73,164.9H133.16a31.74,31.74,0,0,0,31.74-31.74V31.73A31.74,31.74,0,0,0,133.16,0ZM92.37,40.64V58.25h38.88v48.12c0,7.47-1.27,11.65-6.59,14.19-5.06,2.4-11.9,2.66-21.15,2.66A59.93,59.93,0,0,0,98.32,108c5.83.25,12.79.25,14.57.13,2,0,2.53-.51,2.53-2.16v-33h-23v64.59H76.54V72.94H54.37v50.53H38.92V58.25H76.54V41.53C62,42.29,47.28,42.67,33.6,42.67c-.12-4.31-1.77-10-3.16-13.55,35.33-.51,75.73-2.92,102.33-6.84l5.7,13.55C124.92,38,109.09,39.5,92.37,40.64Z"/></g></g></svg>