<?xml version="1.0" standalone="no"?><!DOCTYPE svg PUBLIC "-//W3C//DTD SVG 1.1//EN" "http://www.w3.org/Graphics/SVG/1.1/DTD/svg11.dtd"><svg t="1569423768955" class="icon" viewBox="0 0 1024 1024" version="1.1" xmlns="http://www.w3.org/2000/svg" p-id="2720" xmlns:xlink="http://www.w3.org/1999/xlink" width="200" height="200"><defs><style type="text/css"></style></defs><path d="M920.33 203.35c21.18 0 38.34 17.17 38.34 38.34v536.82c0 21.18-17.17 38.34-38.34 38.34s-38.34-17.17-38.34-38.34V241.69c0-21.17 17.16-38.34 38.34-38.34z m-204.5 255.63c21.18 0 38.34 17.17 38.34 38.34v281.19c0 21.18-17.17 38.34-38.34 38.34s-38.34-17.17-38.34-38.34V497.32c0-21.18 17.16-38.34 38.34-38.34z m-204.5-230.07c21.18 0 38.34 17.17 38.34 38.34V778.5c0 21.18-17.17 38.34-38.34 38.34-21.18 0-38.34-17.17-38.34-38.34V267.26c0-21.18 17.16-38.35 38.34-38.35z m-204.5-102.25c21.18 0 38.34 17.17 38.34 38.34v613.5c0 21.18-17.17 38.34-38.34 38.34-21.18 0-38.34-17.17-38.34-38.34V165c-0.01-21.17 17.16-38.34 38.34-38.34z m-204.5 306.75c21.18 0 38.34 17.17 38.34 38.34V778.5c0 21.18-17.17 38.34-38.34 38.34s-38.34-17.17-38.34-38.34V471.76c-0.01-21.18 17.16-38.35 38.34-38.35z" fill="#262626" p-id="2721"></path></svg>