<?xml version="1.0" standalone="no"?><!DOCTYPE svg PUBLIC "-//W3C//DTD SVG 1.1//EN" "http://www.w3.org/Graphics/SVG/1.1/DTD/svg11.dtd"><svg t="1572098491693" class="icon" viewBox="0 0 1024 1024" version="1.1" xmlns="http://www.w3.org/2000/svg" p-id="19768" xmlns:xlink="http://www.w3.org/1999/xlink" width="200" height="200"><defs><style type="text/css"></style></defs><path d="M870.7 917.7l-70.4-65.5c22.2-27.9 35.6-63.2 35.6-101.6 0-40.2-14.7-77-38.8-105.6V273.9c0-7.2-3.2-14.1-8.7-18.7L568.6 69.7l-0.6-0.3c-2-1.6-4.1-2.9-6.5-3.8-0.3-0.1-0.7-0.2-1-0.3-2.5-0.8-5-1.4-7.8-1.4H164.3c-13.6 0-24.5 11-24.5 24.5v759.7c0 13.5 11 24.5 24.5 24.5H564c28.9 25.6 66.8 41.4 108.3 41.4 34.1 0 65.7-10.5 91.9-28.4l72.9 67.9c4.7 4.4 10.7 6.6 16.7 6.6 6.6 0 13.1-2.6 18-7.8 9.3-9.8 8.8-25.4-1.1-34.6zM577.3 141.3L736 275.2h-97.8c-33.5 0-60.8-27.3-60.8-60.8v-73.1zM188.9 113h339.4v101.3c0 60.6 49.3 109.9 109.9 109.9H748v281.5c-22.6-11.9-48.3-18.7-75.6-18.7-90.2 0-163.5 73.4-163.5 163.5 0 26.3 6.4 51.1 17.5 73.1H188.9V113z m369 637.6c0-63.1 51.4-114.5 114.5-114.5s114.5 51.3 114.5 114.5S735.5 865 672.4 865s-114.5-51.3-114.5-114.4z" p-id="19769"></path></svg>