<?xml version="1.0" standalone="no"?><!DOCTYPE svg PUBLIC "-//W3C//DTD SVG 1.1//EN" "http://www.w3.org/Graphics/SVG/1.1/DTD/svg11.dtd"><svg t="1569051102209" class="icon" viewBox="0 0 1024 1024" version="1.1" xmlns="http://www.w3.org/2000/svg" p-id="7143" xmlns:xlink="http://www.w3.org/1999/xlink" width="200" height="200"><defs><style type="text/css"></style></defs><path d="M922.171312 231.492328c0-48.194652-39.197744-87.423095-87.450724-87.423095L183.247023 144.069233c-48.195675 0-87.437421 39.228443-87.437421 87.423095l0 561.04195c0 48.196699 39.241746 87.394443 87.437421 87.394443l651.473565 0c48.25298 0 87.450724-39.198767 87.450724-87.394443l0-67.851341c0-0.115634-0.059352-0.233314-0.059352-0.348947L922.171312 231.492328zM867.316983 724.888622l0 63.355957c0 20.327978-16.474206 36.859489-36.861536 36.859489l-642.871653 0c-20.373003 0-36.948517-16.530488-36.948517-36.859489L150.635277 235.800447c0-20.37198 16.576537-36.904515 36.948517-36.904515l642.871653 0c20.388353 0 36.861536 16.532535 36.861536 36.904515L867.316983 724.888622z" p-id="7144"></path><path d="M735.294111 401.429719 549.818839 607.732341l-131.586944-93.380784c-5.432733-5.448082-12.82305-8.470929-20.85498-8.470929l-1.168616 0.059352-1.840928-0.059352c-7.973602 0-15.362896 3.022847-21.352307 9.099239l-133.162836 178.277336c-11.508102 11.565407-11.508102 30.346145 0 41.914622 5.593392 5.578042 13.012362 8.67559 20.942985 8.67559 7.930623 0 15.349593-3.096525 21.511943-9.28855l119.567189-160.093185 130.796952 92.795453c5.462408 5.54939 12.939707 8.589632 22.257933 8.589632 7.974625 0 15.392572-3.040243 21.086248-8.762571l201.338564-223.988424c5.637394-5.564739 8.762571-13.012362 8.762571-20.956288 0-7.931646-3.1262-15.349593-8.762571-20.944008C766.195911 390.038274 746.917846 389.80496 735.294111 401.429719z" p-id="7145"></path><path d="M373.249401 452.457906c42.032302 0 76.236312-34.174334 76.236312-76.205613 0-41.9883-34.20401-76.175937-76.236312-76.175937-42.001603 0-76.17696 34.18866-76.17696 76.175937C297.072441 418.283572 331.247798 452.457906 373.249401 452.457906zM373.249401 353.906355c12.356422 0 22.37459 9.989515 22.37459 22.345937 0 12.355399-10.018168 22.373567-22.37459 22.373567-12.3247 0-22.315238-10.019191-22.315238-22.373567C350.934163 363.895871 360.924701 353.906355 373.249401 353.906355z" p-id="7146"></path></svg>