<?xml version="1.0" standalone="no"?><!DOCTYPE svg PUBLIC "-//W3C//DTD SVG 1.1//EN" "http://www.w3.org/Graphics/SVG/1.1/DTD/svg11.dtd"><svg t="1569056139843" class="icon" viewBox="0 0 1024 1024" version="1.1" xmlns="http://www.w3.org/2000/svg" p-id="4457" xmlns:xlink="http://www.w3.org/1999/xlink" width="200" height="200"><defs><style type="text/css"></style></defs><path d="M712.96 538.88c2.56-2.986667 4.693333-5.546667 6.826667-8.533333 0.853333-1.28 2.133333-2.56 2.986666-3.84 1.706667-2.133333 2.986667-4.266667 4.693334-6.4 0.853333-1.28 2.133333-2.986667 2.986666-4.266667 2.133333-3.413333 4.266667-6.4 6.4-9.813333 0-0.426667 0.426667-0.426667 0.426667-0.853334 25.6-41.813333 40.106667-91.733333 38.826667-145.066666-3.413333-140.8-119.466667-255.573333-260.266667-257.706667-148.053333-2.133333-268.8 116.906667-268.8 264.533333v2.986667c0.426667 18.773333 15.36 33.706667 34.133333 33.706667 19.2 0 34.133333-15.786667 34.133334-34.986667V366.933333c0-113.066667 96.426667-204.373333 211.2-195.84 96.853333 7.253333 174.933333 86.613333 180.906666 183.466667 4.693333 77.653333-35.84 146.346667-98.133333 182.186667-71.253333 38.826667-122.88 109.653333-135.253333 193.28-2.986667 20.48 13.226667 38.826667 33.706666 38.826666 16.64 0 31.146667-11.946667 33.706667-28.586666 8.96-61.44 46.506667-113.493333 98.56-142.933334 6.826667-3.84 13.226667-7.68 19.626667-11.946666l3.84-2.56c2.133333-1.28 3.84-2.986667 5.973333-4.266667 1.706667-1.28 3.413333-2.56 5.12-4.266667 2.56-2.133333 5.12-4.266667 8.106667-6.4 1.28-1.28 2.986667-2.56 4.266666-3.84 1.706667-1.28 3.413333-2.986667 5.12-4.693333 2.56-2.133333 4.693333-4.693333 7.253334-6.826667l4.693333-4.693333c1.706667-1.706667 2.986667-3.413333 4.693333-5.12 1.706667-0.853333 2.986667-2.133333 4.266667-3.84z" fill="#4C4C4C" p-id="4458"></path><path d="M499.2 878.933333m-42.666667 0a42.666667 42.666667 0 1 0 85.333334 0 42.666667 42.666667 0 1 0-85.333334 0Z" fill="#4C4C4C" p-id="4459"></path></svg>