<?xml version="1.0" standalone="no"?><!DOCTYPE svg PUBLIC "-//W3C//DTD SVG 1.1//EN" "http://www.w3.org/Graphics/SVG/1.1/DTD/svg11.dtd"><svg t="1569400576738" class="icon" viewBox="0 0 1024 1024" version="1.1" xmlns="http://www.w3.org/2000/svg" p-id="9602" xmlns:xlink="http://www.w3.org/1999/xlink" width="200" height="200"><defs><style type="text/css"></style></defs><path d="M959 487h-52.8c-12.4-198.2-171-356.7-369.2-369.1V65h-50v52.9C288.8 130.3 130.2 288.8 117.8 487H65v50h52.7c12.4 198.3 171 357 369.3 369.4V959h50v-52.6C735.3 894 893.9 735.3 906.2 537H959v-50zM829.9 646.4c-17.4 41.1-42.3 78-74 109.7-31.7 31.7-68.6 56.6-109.7 74-34.9 14.7-71.5 23.5-109.3 26.2V689h-50v167.3c-37.8-2.7-74.4-11.5-109.3-26.2-41.1-17.4-78-42.3-109.7-74-31.7-31.7-56.6-68.6-74-109.7-14.8-34.9-23.5-71.6-26.2-109.4H335v-50H167.9c2.7-37.7 11.5-74.3 26.2-109.1 17.4-41.1 42.3-78 74-109.7 31.7-31.7 68.6-56.6 109.7-74 34.9-14.7 71.5-23.5 109.3-26.2v167h50V168c37.8 2.7 74.4 11.5 109.3 26.2 41.1 17.4 78 42.3 109.7 74 31.7 31.7 56.6 68.6 74 109.7 14.7 34.8 23.5 71.4 26.2 109.1H689v50h167.1c-2.7 37.8-11.4 74.5-26.2 109.4z" fill="" p-id="9603"></path></svg>