<?xml version="1.0" standalone="no"?><!DOCTYPE svg PUBLIC "-//W3C//DTD SVG 1.1//EN" "http://www.w3.org/Graphics/SVG/1.1/DTD/svg11.dtd"><svg t="1573094122281" class="icon" viewBox="0 0 1024 1024" version="1.1" xmlns="http://www.w3.org/2000/svg" p-id="1667" xmlns:xlink="http://www.w3.org/1999/xlink" width="200" height="200"><defs><style type="text/css"></style></defs><path d="M515.0208 373.59616l-16.19456 0 0 204.68736 8.09472 0 262.60992 0 0-16.18944L515.0208 562.09408 515.0208 373.59616 515.0208 373.59616zM515.0208 128.64l0-46.85824 37.85216 0 0-16.18944L460.97408 65.59232l0 16.18944 37.85728 0 0 46.85824c-233.8048 4.31616-422.00576 195.18464-422.00576 430.01856 0 237.53728 192.55808 430.10048 430.09536 430.10048 237.53728 0 430.10048-192.5632 430.10048-430.10048C937.02144 323.82464 748.81536 132.95616 515.0208 128.64L515.0208 128.64zM883.06688 558.65856c0 50.80064-9.93792 100.06016-29.5424 146.39616-18.944 44.78464-46.06976 85.01248-80.63488 119.5776-34.56 34.56-74.78784 61.68576-119.57248 80.62464-46.336 19.59936-95.59552 29.54752-146.39616 29.54752s-100.05504-9.94304-146.39104-29.54752c-44.78464-18.93888-85.01248-46.06464-119.5776-80.62464-34.56-34.56512-61.69088-74.79296-80.63488-119.5776-19.59936-46.34624-29.53728-95.59552-29.53728-146.39616s9.93792-100.05504 29.53728-146.39616c18.944-44.78464 46.06976-85.01248 80.63488-119.5776s74.79296-61.69088 119.5776-80.63488c46.336-19.59936 95.5904-29.53728 146.39104-29.53728s100.06016 9.93792 146.39616 29.53728c44.78464 18.944 85.01248 46.06976 119.57248 80.63488 34.56512 34.56 61.69088 74.79296 80.63488 119.5776C873.12384 458.60352 883.06688 507.85792 883.06688 558.65856L883.06688 558.65856zM894.91456 287.76448l44.21632-30.92992c-36.56192-52.25984-82.33472-97.5616-134.99904-133.57568-52.6592-36.0192-112.22528-62.7456-176.29184-77.78304l-12.32896 52.5312c57.45664 13.4912 110.8736 37.4528 158.16192 69.7856C820.95616 200.13056 862.09536 240.8448 894.91456 287.76448L894.91456 287.76448zM237.05088 169.94816c45.97248-31.98464 97.86368-56.00768 153.69728-70.10304L377.54368 47.52896c-62.2592 15.71328-120.10496 42.50112-171.31008 78.12096-51.2 35.61984-95.7696 80.0768-131.52256 131.18464l44.21632 30.92992C151.02464 241.87904 191.07328 201.92768 237.05088 169.94816L237.05088 169.94816z" p-id="1668"></path></svg>